<svg xmlns="http://www.w3.org/2000/svg" viewBox="116 398 768 208" style="max-height: 500px" width="768" height="208"><defs/><path d="M 534.98291865495 975.51790610083 C 532.28291865495 966.61790610083 528.38291865495 958.31790610083 523.58291865495 950.41790610083 C 529.58291865495 940.11790610083 531.78291865495 927.41790610083 530.88291865495 915.61790610083 C 529.18291865495 891.71790610083 511.08291865495 873.01790610083 490.78291865495 862.31790610083 C 482.58291865495 858.01790610083 473.98291865495 854.81790610083 464.98291865495 852.61790610083 C 461.88291865495 841.11790610083 454.48291865495 830.61790610083 445.58291865495 822.81790610083 C 427.48291865495 807.11790610083 401.48291865495 806.71790610083 379.48291865495 813.41790610083 C 370.58291865495 816.11790610083 362.28291865495 820.01790610083 354.38291865495 824.81790610083 C 344.08291865495 818.81790610083 331.38291865495 816.61790610083 319.58291865495 817.51790610083 C 295.68291865495 819.21790610083 276.98291865495 837.31790610083 266.28291865495 857.61790610083 C 261.98291865495 865.81790610083 258.78291865495 874.41790610083 256.58291865495 883.41790610083 C 245.08291865495 886.51790610083 234.58291865495 893.91790610083 226.78291865495 902.81790610083 C 211.08291865495 920.91790610083 210.68291865495 946.91790610083 217.38291865495 968.91790610083 C 220.08291865495 977.81790610083 223.98291865495 986.11790610083 228.78291865495 994.01790610083 C 222.78291865495 1004.31790610083 220.58291865495 1017.01790610083 221.48291865495 1028.81790610083 C 223.18291865495 1052.71790610083 241.28291865495 1071.41790610083 261.58291865495 1082.11790610083 C 269.78291865495 1086.41790610083 278.38291865495 1089.61790610083 287.38291865495 1091.81790610083 C 290.48291865495 1103.31790610083 297.88291865495 1113.81790610083 306.78291865495 1121.61790610083 C 324.88291865495 1137.31790610083 350.88291865495 1137.71790610083 372.88291865495 1131.01790610083 C 381.78291865495 1128.31790610083 390.08291865495 1124.41790610083 397.98291865495 1119.61790610083 C 408.28291865495 1125.61790610083 420.98291865495 1127.81790610083 432.78291865495 1126.91790610083 C 456.68291865495 1125.21790610083 475.38291865495 1107.11790610083 486.08291865495 1086.81790610083 C 490.38291865495 1078.61790610083 493.58291865495 1070.01790610083 495.78291865495 1061.01790610083 C 507.28291865495 1057.91790610083 517.78291865495 1050.51790610083 525.58291865495 1041.61790610083 C 541.28291865495 1023.51790610083 541.78291865495 997.51790610083 534.98291865495 975.51790610083 Z M 515.38291865495 1040.61790610083 C 510.48291865495 1046.21790610083 504.28291865495 1051.31790610083 497.28291865495 1054.51790610083 C 503.28291865495 1022.31790610083 496.28291865495 987.31790610083 480.18291865495 959.01790610083 C 478.08291865495 955.41790610083 475.88291865495 951.11790610083 472.58291865495 947.21790610083 C 467.28291865495 940.81790610083 457.88291865495 940.31790610083 452.38291865495 947.11790610083 C 444.18291865495 957.21790610083 454.38291865495 966.41790610083 459.58291865495 974.11790610083 C 472.48291865495 993.31790610083 479.78291865495 1016.41790610083 480.38291865495 1039.51790610083 C 480.98291865495 1063.11790610083 474.18291865495 1087.71790610083 457.18291865495 1104.91790610083 C 448.58291865495 1113.61790610083 438.48291865495 1118.31790610083 426.18291865495 1119.11790610083 C 418.78291865495 1119.61790610083 410.78291865495 1118.81790610083 403.58291865495 1116.11790610083 C 430.58291865495 1097.51790610083 450.38291865495 1067.91790610083 459.08291865495 1036.41790610083 C 460.18291865495 1032.41790610083 461.58291865495 1027.81790610083 462.08291865495 1022.61790610083 C 462.88291865495 1014.31790610083 456.58291865495 1007.31790610083 447.88291865495 1008.21790610083 C 434.98291865495 1009.61790610083 435.68291865495 1023.31790610083 433.88291865495 1032.41790610083 C 429.38291865495 1055.11790610083 418.28291865495 1076.61790610083 402.28291865495 1093.41790610083 C 385.98291865495 1110.51790610083 363.78291865495 1123.11790610083 339.68291865495 1123.21790610083 C 327.38291865495 1123.21790610083 316.98291865495 1119.51790610083 307.78291865495 1111.31790610083 C 302.18291865495 1106.41790610083 297.08291865495 1100.21790610083 293.88291865495 1093.21790610083 C 326.08291865495 1099.21790610083 361.08291865495 1092.21790610083 389.38291865495 1076.11790610083 C 392.98291865495 1074.01790610083 397.28291865495 1071.81790610083 401.18291865495 1068.51790610083 C 407.58291865495 1063.21790610083 408.08291865495 1053.81790610083 401.28291865495 1048.31790610083 C 391.18291865495 1040.11790610083 381.98291865495 1050.31790610083 374.28291865495 1055.51790610083 C 355.08291865495 1068.41790610083 331.98291865495 1075.71790610083 308.88291865495 1076.31790610083 C 285.28291865495 1076.91790610083 260.68291865495 1070.11790610083 243.48291865495 1053.11790610083 C 234.78291865495 1044.51790610083 230.08291865495 1034.41790610083 229.28291865495 1022.11790610083 C 228.78291865495 1014.71790610083 229.58291865495 1006.71790610083 232.28291865495 999.51790610083 C 250.88291865495 1026.51790610083 280.48291865495 1046.31790610083 311.98291865495 1055.01790610083 C 315.98291865495 1056.11790610083 320.58291865495 1057.51790610083 325.68291865495 1058.01790610083 C 333.98291865495 1058.81790610083 340.98291865495 1052.51790610083 340.08291865495 1043.81790610083 C 338.68291865495 1030.91790610083 324.98291865495 1031.61790610083 315.88291865495 1029.81790610083 C 293.18291865495 1025.31790610083 271.68291865495 1014.21790610083 254.88291865495 998.31790610083 C 237.78291865495 982.01790610083 225.18291865495 959.81790610083 225.08291865495 935.71790610083 C 225.08291865495 923.51790610083 228.78291865495 913.01790610083 236.98291865495 903.81790610083 C 241.88291865495 898.21790610083 248.08291865495 893.11790610083 255.08291865495 889.91790610083 C 249.08291865495 922.11790610083 256.08291865495 957.11790610083 272.18291865495 985.51790610083 C 274.28291865495 989.11790610083 276.48291865495 993.41790610083 279.78291865495 997.31790610083 C 285.08291865495 1003.81790610083 294.48291865495 1004.21790610083 299.98291865495 997.41790610083 C 308.18291865495 987.31790610083 297.98291865495 978.11790610083 292.78291865495 970.41790610083 C 279.88291865495 951.21790610083 272.58291865495 928.11790610083 271.98291865495 905.01790610083 C 271.38291865495 881.41790610083 278.18291865495 856.81790610083 295.18291865495 839.61790610083 C 303.78291865495 830.91790610083 313.88291865495 826.21790610083 326.18291865495 825.41790610083 C 333.58291865495 824.91790610083 341.58291865495 825.71790610083 348.78291865495 828.41790610083 C 321.78291865495 847.01790610083 301.98291865495 876.61790610083 293.28291865495 908.11790610083 C 292.18291865495 912.11790610083 290.78291865495 916.71790610083 290.28291865495 921.81790610083 C 289.48291865495 930.11790610083 295.78291865495 937.11790610083 304.48291865495 936.21790610083 C 317.38291865495 934.81790610083 316.68291865495 921.11790610083 318.48291865495 912.01790610083 C 322.98291865495 889.31790610083 334.08291865495 867.81790610083 349.98291865495 851.01790610083 C 366.28291865495 833.91790610083 388.48291865495 821.31790610083 412.58291865495 821.21790610083 C 424.88291865495 821.21790610083 435.28291865495 824.91790610083 444.48291865495 833.01790610083 C 450.08291865495 837.91790610083 455.18291865495 844.11790610083 458.38291865495 851.11790610083 C 426.18291865495 845.11790610083 391.18291865495 852.11790610083 362.78291865495 868.21790610083 C 359.18291865495 870.31790610083 354.88291865495 872.51790610083 350.98291865495 875.81790610083 C 344.58291865495 881.11790610083 344.08291865495 890.51790610083 350.88291865495 896.01790610083 C 360.98291865495 904.21790610083 370.18291865495 894.01790610083 377.88291865495 888.81790610083 C 397.08291865495 875.91790610083 420.18291865495 868.61790610083 443.28291865495 868.01790610083 C 466.88291865495 867.41790610083 491.48291865495 874.21790610083 508.68291865495 891.21790610083 C 517.38291865495 899.81790610083 522.08291865495 909.91790610083 522.88291865495 922.21790610083 C 523.38291865495 929.61790610083 522.58291865495 937.61790610083 519.88291865495 944.81790610083 C 501.28291865495 917.81790610083 471.68291865495 898.01790610083 440.18291865495 889.31790610083 C 436.18291865495 888.21790610083 431.58291865495 886.81790610083 426.38291865495 886.31790610083 C 418.08291865495 885.51790610083 411.08291865495 891.81790610083 411.98291865495 900.51790610083 C 413.38291865495 913.41790610083 427.08291865495 912.71790610083 436.18291865495 914.51790610083 C 458.88291865495 919.01790610083 480.38291865495 930.11790610083 497.18291865495 946.01790610083 C 514.28291865495 962.31790610083 526.88291865495 984.51790610083 526.98291865495 1008.61790610083 C 527.28291865495 1020.91790610083 523.48291865495 1031.31790610083 515.38291865495 1040.61790610083 Z" transform="matrix(0.48845373605706793 0 0 0.48845373605706793 45.82769886578773 25.116531503470583)" fill="#d01e26"/><path d="M 95.86423293876 529.47328474462 C 97.97623293876 529.47328474462 99.72023293876 529.29728474462 101.09623293876 528.94528474462 C 102.47223293876 528.59328474462 103.57623293876 528.11328474462 104.40823293876 527.50528474462 C 105.24023293876 526.89728474462 105.81623293876 526.17728474462 106.13623293876 525.34528474462 C 106.45623293876 524.51328474462 106.61623293876 523.58528474462 106.61623293876 522.56128474462 C 106.61623293876 520.38528474462 105.59223293876 518.57728474462 103.54423293876 517.13728474462 C 101.49623293876 515.69728474462 97.97623293876 514.14528474462 92.98423293876 512.48128474462 C 90.80823293876 511.71328474462 88.63223293876 510.83328474462 86.45623293876 509.84128474462 C 84.28023293876 508.84928474462 82.32823293876 507.60128474462 80.60023293876 506.09728474462 C 78.87223293876 504.59328474462 77.46423293876 502.76928474462 76.37623293876 500.62528474462 C 75.28823293876 498.48128474462 74.74423293876 495.87328474462 74.74423293876 492.80128474462 C 74.74423293876 489.72928474462 75.32023293876 486.96128474462 76.47223293876 484.49728474462 C 77.62423293876 482.03328474462 79.25623293876 479.93728474462 81.36823293876 478.20928474462 C 83.48023293876 476.48128474462 86.04023293876 475.15328474462 89.04823293876 474.22528474462 C 92.05623293876 473.29728474462 95.44823293876 472.83328474462 99.22423293876 472.83328474462 C 103.70423293876 472.83328474462 107.57623293876 473.31328474462 110.84023293876 474.27328474462 C 114.10423293876 475.23328474462 116.79223293876 476.28928474462 118.90423293876 477.44128474462 L 114.58423293876 489.24928474462 C 112.72823293876 488.28928474462 110.66423293876 487.44128474462 108.39223293876 486.70528474462 C 106.12023293876 485.96928474462 103.38423293876 485.60128474462 100.18423293876 485.60128474462 C 96.60023293876 485.60128474462 94.02423293876 486.09728474462 92.45623293876 487.08928474462 C 90.88823293876 488.08128474462 90.10423293876 489.60128474462 90.10423293876 491.64928474462 C 90.10423293876 492.86528474462 90.39223293876 493.88928474462 90.96823293876 494.72128474462 C 91.54423293876 495.55328474462 92.36023293876 496.30528474462 93.41623293876 496.97728474462 C 94.47223293876 497.64928474462 95.68823293876 498.25728474462 97.06423293876 498.80128474462 C 98.44023293876 499.34528474462 99.96023293876 499.90528474462 101.62423293876 500.48128474462 C 105.08023293876 501.76128474462 108.08823293876 503.02528474462 110.64823293876 504.27328474462 C 113.20823293876 505.52128474462 115.33623293876 506.97728474462 117.03223293876 508.64128474462 C 118.72823293876 510.30528474462 119.99223293876 512.25728474462 120.82423293876 514.49728474462 C 121.65623293876 516.73728474462 122.07223293876 519.45728474462 122.07223293876 522.65728474462 C 122.07223293876 528.86528474462 119.89623293876 533.68128474462 115.54423293876 537.10528474462 C 111.19223293876 540.52928474462 104.63223293876 542.24128474462 95.86423293876 542.24128474462 C 92.92023293876 542.24128474462 90.26423293876 542.06528474462 87.89623293876 541.71328474462 C 85.52823293876 541.36128474462 83.43223293876 540.92928474462 81.60823293876 540.41728474462 C 79.78423293876 539.90528474462 78.21623293876 539.36128474462 76.90423293876 538.78528474462 C 75.59223293876 538.20928474462 74.48823293876 537.66528474462 73.59223293876 537.15328474462 L 77.81623293876 525.24928474462 C 79.80023293876 526.33728474462 82.24823293876 527.31328474462 85.16023293876 528.17728474462 C 88.07223293876 529.04128474462 91.64023293876 529.47328474462 95.86423293876 529.47328474462 Z M 132.15223293876 477.82528474462 L 146.45623293876 475.52128474462 L 146.45623293876 490.40128474462 L 163.64023293876 490.40128474462 L 163.64023293876 502.30528474462 L 146.45623293876 502.30528474462 L 146.45623293876 520.06528474462 C 146.45623293876 523.07328474462 146.98423293876 525.47328474462 148.04023293876 527.26528474462 C 149.09623293876 529.05728474462 151.22423293876 529.95328474462 154.42423293876 529.95328474462 C 155.96023293876 529.95328474462 157.54423293876 529.80928474462 159.17623293876 529.52128474462 C 160.80823293876 529.23328474462 162.29623293876 528.83328474462 163.64023293876 528.32128474462 L 165.65623293876 539.45728474462 C 163.92823293876 540.16128474462 162.00823293876 540.76928474462 159.89623293876 541.28128474462 C 157.78423293876 541.79328474462 155.19223293876 542.04928474462 152.12023293876 542.04928474462 C 148.21623293876 542.04928474462 144.98423293876 541.52128474462 142.42423293876 540.46528474462 C 139.86423293876 539.40928474462 137.81623293876 537.93728474462 136.28023293876 536.04928474462 C 134.74423293876 534.16128474462 133.67223293876 531.87328474462 133.06423293876 529.18528474462 C 132.45623293876 526.49728474462 132.15223293876 523.52128474462 132.15223293876 520.25728474462 L 132.15223293876 477.82528474462 Z M 205.68823293876 503.07328474462 C 204.40823293876 502.75328474462 202.90423293876 502.41728474462 201.17623293876 502.06528474462 C 199.44823293876 501.71328474462 197.59223293876 501.53728474462 195.60823293876 501.53728474462 C 194.71223293876 501.53728474462 193.64023293876 501.61728474462 192.39223293876 501.77728474462 C 191.14423293876 501.93728474462 190.20023293876 502.11328474462 189.56023293876 502.30528474462 L 189.56023293876 540.89728474462 L 175.25623293876 540.89728474462 L 175.25623293876 493.08928474462 C 177.81623293876 492.19328474462 180.84023293876 491.34528474462 184.32823293876 490.54528474462 C 187.81623293876 489.74528474462 191.70423293876 489.34528474462 195.99223293876 489.34528474462 C 196.76023293876 489.34528474462 197.68823293876 489.39328474462 198.77623293876 489.48928474462 C 199.86423293876 489.58528474462 200.95223293876 489.71328474462 202.04023293876 489.87328474462 C 203.12823293876 490.03328474462 204.21623293876 490.22528474462 205.30423293876 490.44928474462 C 206.39223293876 490.67328474462 207.32023293876 490.94528474462 208.08823293876 491.26528474462 L 205.68823293876 503.07328474462 Z M 234.10423293876 530.91328474462 C 235.51223293876 530.91328474462 236.85623293876 530.88128474462 238.13623293876 530.81728474462 C 239.41623293876 530.75328474462 240.44023293876 530.65728474462 241.20823293876 530.52928474462 L 241.20823293876 519.68128474462 C 240.63223293876 519.55328474462 239.76823293876 519.42528474462 238.61623293876 519.29728474462 C 237.46423293876 519.16928474462 236.40823293876 519.10528474462 235.44823293876 519.10528474462 C 234.10423293876 519.10528474462 232.84023293876 519.18528474462 231.65623293876 519.34528474462 C 230.47223293876 519.50528474462 229.43223293876 519.80928474462 228.53623293876 520.25728474462 C 227.64023293876 520.70528474462 226.93623293876 521.31328474462 226.42423293876 522.08128474462 C 225.91223293876 522.84928474462 225.65623293876 523.80928474462 225.65623293876 524.96128474462 C 225.65623293876 527.20128474462 226.40823293876 528.75328474462 227.91223293876 529.61728474462 C 229.41623293876 530.48128474462 231.48023293876 530.91328474462 234.10423293876 530.91328474462 Z M 232.95223293876 489.05728474462 C 237.17623293876 489.05728474462 240.69623293876 489.53728474462 243.51223293876 490.49728474462 C 246.32823293876 491.45728474462 248.58423293876 492.83328474462 250.28023293876 494.62528474462 C 251.97623293876 496.41728474462 253.17623293876 498.59328474462 253.88023293876 501.15328474462 C 254.58423293876 503.71328474462 254.93623293876 506.56128474462 254.93623293876 509.69728474462 L 254.93623293876 539.45728474462 C 252.88823293876 539.90528474462 250.04023293876 540.43328474462 246.39223293876 541.04128474462 C 242.74423293876 541.64928474462 238.32823293876 541.95328474462 233.14423293876 541.95328474462 C 229.88023293876 541.95328474462 226.92023293876 541.66528474462 224.26423293876 541.08928474462 C 221.60823293876 540.51328474462 219.32023293876 539.56928474462 217.40023293876 538.25728474462 C 215.48023293876 536.94528474462 214.00823293876 535.23328474462 212.98423293876 533.12128474462 C 211.96023293876 531.00928474462 211.44823293876 528.41728474462 211.44823293876 525.34528474462 C 211.44823293876 522.40128474462 212.04023293876 519.90528474462 213.22423293876 517.85728474462 C 214.40823293876 515.80928474462 215.99223293876 514.17728474462 217.97623293876 512.96128474462 C 219.96023293876 511.74528474462 222.23223293876 510.86528474462 224.79223293876 510.32128474462 C 227.35223293876 509.77728474462 230.00823293876 509.50528474462 232.76023293876 509.50528474462 C 234.61623293876 509.50528474462 236.26423293876 509.58528474462 237.70423293876 509.74528474462 C 239.14423293876 509.90528474462 240.31223293876 510.11328474462 241.20823293876 510.36928474462 L 241.20823293876 509.02528474462 C 241.20823293876 506.59328474462 240.47223293876 504.64128474462 239.00023293876 503.16928474462 C 237.52823293876 501.69728474462 234.96823293876 500.96128474462 231.32023293876 500.96128474462 C 228.88823293876 500.96128474462 226.48823293876 501.13728474462 224.12023293876 501.48928474462 C 221.75223293876 501.84128474462 219.70423293876 502.33728474462 217.97623293876 502.97728474462 L 216.15223293876 491.45728474462 C 216.98423293876 491.20128474462 218.02423293876 490.92928474462 219.27223293876 490.64128474462 C 220.52023293876 490.35328474462 221.88023293876 490.09728474462 223.35223293876 489.87328474462 C 224.82423293876 489.64928474462 226.37623293876 489.45728474462 228.00823293876 489.29728474462 C 229.64023293876 489.13728474462 231.28823293876 489.05728474462 232.95223293876 489.05728474462 Z M 267.41623293876 477.82528474462 L 281.72023293876 475.52128474462 L 281.72023293876 490.40128474462 L 298.90423293876 490.40128474462 L 298.90423293876 502.30528474462 L 281.72023293876 502.30528474462 L 281.72023293876 520.06528474462 C 281.72023293876 523.07328474462 282.24823293876 525.47328474462 283.30423293876 527.26528474462 C 284.36023293876 529.05728474462 286.48823293876 529.95328474462 289.68823293876 529.95328474462 C 291.22423293876 529.95328474462 292.80823293876 529.80928474462 294.44023293876 529.52128474462 C 296.07223293876 529.23328474462 297.56023293876 528.83328474462 298.90423293876 528.32128474462 L 300.92023293876 539.45728474462 C 299.19223293876 540.16128474462 297.27223293876 540.76928474462 295.16023293876 541.28128474462 C 293.04823293876 541.79328474462 290.45623293876 542.04928474462 287.38423293876 542.04928474462 C 283.48023293876 542.04928474462 280.24823293876 541.52128474462 277.68823293876 540.46528474462 C 275.12823293876 539.40928474462 273.08023293876 537.93728474462 271.54423293876 536.04928474462 C 270.00823293876 534.16128474462 268.93623293876 531.87328474462 268.32823293876 529.18528474462 C 267.72023293876 526.49728474462 267.41623293876 523.52128474462 267.41623293876 520.25728474462 L 267.41623293876 477.82528474462 Z M 355.83223293876 515.55328474462 C 355.83223293876 519.52128474462 355.25623293876 523.15328474462 354.10423293876 526.44928474462 C 352.95223293876 529.74528474462 351.28823293876 532.56128474462 349.11223293876 534.89728474462 C 346.93623293876 537.23328474462 344.32823293876 539.04128474462 341.28823293876 540.32128474462 C 338.24823293876 541.60128474462 334.84023293876 542.24128474462 331.06423293876 542.24128474462 C 327.35223293876 542.24128474462 323.97623293876 541.60128474462 320.93623293876 540.32128474462 C 317.89623293876 539.04128474462 315.28823293876 537.23328474462 313.11223293876 534.89728474462 C 310.93623293876 532.56128474462 309.24023293876 529.74528474462 308.02423293876 526.44928474462 C 306.80823293876 523.15328474462 306.20023293876 519.52128474462 306.20023293876 515.55328474462 C 306.20023293876 511.58528474462 306.82423293876 507.96928474462 308.07223293876 504.70528474462 C 309.32023293876 501.44128474462 311.04823293876 498.65728474462 313.25623293876 496.35328474462 C 315.46423293876 494.04928474462 318.08823293876 492.25728474462 321.12823293876 490.97728474462 C 324.16823293876 489.69728474462 327.48023293876 489.05728474462 331.06423293876 489.05728474462 C 334.71223293876 489.05728474462 338.05623293876 489.69728474462 341.09623293876 490.97728474462 C 344.13623293876 492.25728474462 346.74423293876 494.04928474462 348.92023293876 496.35328474462 C 351.09623293876 498.65728474462 352.79223293876 501.44128474462 354.00823293876 504.70528474462 C 355.22423293876 507.96928474462 355.83223293876 511.58528474462 355.83223293876 515.55328474462 Z M 341.24023293876 515.55328474462 C 341.24023293876 511.13728474462 340.36023293876 507.66528474462 338.60023293876 505.13728474462 C 336.84023293876 502.60928474462 334.32823293876 501.34528474462 331.06423293876 501.34528474462 C 327.80023293876 501.34528474462 325.27223293876 502.60928474462 323.48023293876 505.13728474462 C 321.68823293876 507.66528474462 320.79223293876 511.13728474462 320.79223293876 515.55328474462 C 320.79223293876 519.96928474462 321.68823293876 523.47328474462 323.48023293876 526.06528474462 C 325.27223293876 528.65728474462 327.80023293876 529.95328474462 331.06423293876 529.95328474462 C 334.32823293876 529.95328474462 336.84023293876 528.65728474462 338.60023293876 526.06528474462 C 340.36023293876 523.47328474462 341.24023293876 519.96928474462 341.24023293876 515.55328474462 Z M 381.36823293876 530.62528474462 C 383.99223293876 530.62528474462 385.84823293876 530.36928474462 386.93623293876 529.85728474462 C 388.02423293876 529.34528474462 388.56823293876 528.35328474462 388.56823293876 526.88128474462 C 388.56823293876 525.72928474462 387.86423293876 524.72128474462 386.45623293876 523.85728474462 C 385.04823293876 522.99328474462 382.90423293876 522.01728474462 380.02423293876 520.92928474462 C 377.78423293876 520.09728474462 375.75223293876 519.23328474462 373.92823293876 518.33728474462 C 372.10423293876 517.44128474462 370.55223293876 516.36928474462 369.27223293876 515.12128474462 C 367.99223293876 513.87328474462 367.00023293876 512.38528474462 366.29623293876 510.65728474462 C 365.59223293876 508.92928474462 365.24023293876 506.84928474462 365.24023293876 504.41728474462 C 365.24023293876 499.68128474462 367.00023293876 495.93728474462 370.52023293876 493.18528474462 C 374.04023293876 490.43328474462 378.87223293876 489.05728474462 385.01623293876 489.05728474462 C 388.08823293876 489.05728474462 391.03223293876 489.32928474462 393.84823293876 489.87328474462 C 396.66423293876 490.41728474462 398.90423293876 491.00928474462 400.56823293876 491.64928474462 L 398.07223293876 502.78528474462 C 396.40823293876 502.20928474462 394.60023293876 501.69728474462 392.64823293876 501.24928474462 C 390.69623293876 500.80128474462 388.50423293876 500.57728474462 386.07223293876 500.57728474462 C 381.59223293876 500.57728474462 379.35223293876 501.82528474462 379.35223293876 504.32128474462 C 379.35223293876 504.89728474462 379.44823293876 505.40928474462 379.64023293876 505.85728474462 C 379.83223293876 506.30528474462 380.21623293876 506.73728474462 380.79223293876 507.15328474462 C 381.36823293876 507.56928474462 382.15223293876 508.01728474462 383.14423293876 508.49728474462 C 384.13623293876 508.97728474462 385.40023293876 509.50528474462 386.93623293876 510.08128474462 C 390.07223293876 511.23328474462 392.66423293876 512.36928474462 394.71223293876 513.48928474462 C 396.76023293876 514.60928474462 398.37623293876 515.82528474462 399.56023293876 517.13728474462 C 400.74423293876 518.44928474462 401.57623293876 519.90528474462 402.05623293876 521.50528474462 C 402.53623293876 523.10528474462 402.77623293876 524.96128474462 402.77623293876 527.07328474462 C 402.77623293876 532.06528474462 400.90423293876 535.84128474462 397.16023293876 538.40128474462 C 393.41623293876 540.96128474462 388.12023293876 542.24128474462 381.27223293876 542.24128474462 C 376.79223293876 542.24128474462 373.06423293876 541.85728474462 370.08823293876 541.08928474462 C 367.11223293876 540.32128474462 365.04823293876 539.68128474462 363.89623293876 539.16928474462 L 366.29623293876 527.55328474462 C 368.72823293876 528.51328474462 371.22423293876 529.26528474462 373.78423293876 529.80928474462 C 376.34423293876 530.35328474462 378.87223293876 530.62528474462 381.36823293876 530.62528474462 Z M 445.78423293876 516.03328474462 C 445.78423293876 511.61728474462 444.79223293876 508.08128474462 442.80823293876 505.42528474462 C 440.82423293876 502.76928474462 437.88023293876 501.44128474462 433.97623293876 501.44128474462 C 432.69623293876 501.44128474462 431.51223293876 501.48928474462 430.42423293876 501.58528474462 C 429.33623293876 501.68128474462 428.44023293876 501.79328474462 427.73623293876 501.92128474462 L 427.73623293876 527.74528474462 C 428.63223293876 528.32128474462 429.80023293876 528.80128474462 431.24023293876 529.18528474462 C 432.68023293876 529.56928474462 434.13623293876 529.76128474462 435.60823293876 529.76128474462 C 442.39223293876 529.76128474462 445.78423293876 525.18528474462 445.78423293876 516.03328474462 Z M 460.37623293876 515.64928474462 C 460.37623293876 519.55328474462 459.89623293876 523.10528474462 458.93623293876 526.30528474462 C 457.97623293876 529.50528474462 456.56823293876 532.25728474462 454.71223293876 534.56128474462 C 452.85623293876 536.86528474462 450.55223293876 538.65728474462 447.80023293876 539.93728474462 C 445.04823293876 541.21728474462 441.88023293876 541.85728474462 438.29623293876 541.85728474462 C 436.31223293876 541.85728474462 434.45623293876 541.66528474462 432.72823293876 541.28128474462 C 431.00023293876 540.89728474462 429.33623293876 540.35328474462 427.73623293876 539.64928474462 L 427.73623293876 558.65728474462 L 413.43223293876 558.65728474462 L 413.43223293876 492.12928474462 C 414.71223293876 491.74528474462 416.18423293876 491.37728474462 417.84823293876 491.02528474462 C 419.51223293876 490.67328474462 421.25623293876 490.36928474462 423.08023293876 490.11328474462 C 424.90423293876 489.85728474462 426.76023293876 489.64928474462 428.64823293876 489.48928474462 C 430.53623293876 489.32928474462 432.34423293876 489.24928474462 434.07223293876 489.24928474462 C 438.23223293876 489.24928474462 441.94423293876 489.87328474462 445.20823293876 491.12128474462 C 448.47223293876 492.36928474462 451.22423293876 494.12928474462 453.46423293876 496.40128474462 C 455.70423293876 498.67328474462 457.41623293876 501.44128474462 458.60023293876 504.70528474462 C 459.78423293876 507.96928474462 460.37623293876 511.61728474462 460.37623293876 515.64928474462 Z M 471.41623293876 540.89728474462 L 471.41623293876 468.70528474462 L 485.72023293876 466.40128474462 L 485.72023293876 490.59328474462 C 486.68023293876 490.27328474462 487.91223293876 489.96928474462 489.41623293876 489.68128474462 C 490.92023293876 489.39328474462 492.37623293876 489.24928474462 493.78423293876 489.24928474462 C 497.88023293876 489.24928474462 501.28823293876 489.80928474462 504.00823293876 490.92928474462 C 506.72823293876 492.04928474462 508.90423293876 493.63328474462 510.53623293876 495.68128474462 C 512.16823293876 497.72928474462 513.32023293876 500.16128474462 513.99223293876 502.97728474462 C 514.66423293876 505.79328474462 515.00023293876 508.92928474462 515.00023293876 512.38528474462 L 515.00023293876 540.89728474462 L 500.69623293876 540.89728474462 L 500.69623293876 514.11328474462 C 500.69623293876 509.50528474462 500.10423293876 506.24128474462 498.92023293876 504.32128474462 C 497.73623293876 502.40128474462 495.54423293876 501.44128474462 492.34423293876 501.44128474462 C 491.06423293876 501.44128474462 489.86423293876 501.55328474462 488.74423293876 501.77728474462 C 487.62423293876 502.00128474462 486.61623293876 502.24128474462 485.72023293876 502.49728474462 L 485.72023293876 540.89728474462 L 471.41623293876 540.89728474462 Z M 525.56023293876 516.03328474462 C 525.56023293876 511.55328474462 526.24823293876 507.63328474462 527.62423293876 504.27328474462 C 529.00023293876 500.91328474462 530.80823293876 498.11328474462 533.04823293876 495.87328474462 C 535.28823293876 493.63328474462 537.86423293876 491.93728474462 540.77623293876 490.78528474462 C 543.68823293876 489.63328474462 546.68023293876 489.05728474462 549.75223293876 489.05728474462 C 556.92023293876 489.05728474462 562.58423293876 491.24928474462 566.74423293876 495.63328474462 C 570.90423293876 500.01728474462 572.98423293876 506.46528474462 572.98423293876 514.97728474462 C 572.98423293876 515.80928474462 572.95223293876 516.72128474462 572.88823293876 517.71328474462 C 572.82423293876 518.70528474462 572.76023293876 519.58528474462 572.69623293876 520.35328474462 L 540.24823293876 520.35328474462 C 540.56823293876 523.29728474462 541.94423293876 525.63328474462 544.37623293876 527.36128474462 C 546.80823293876 529.08928474462 550.07223293876 529.95328474462 554.16823293876 529.95328474462 C 556.79223293876 529.95328474462 559.36823293876 529.71328474462 561.89623293876 529.23328474462 C 564.42423293876 528.75328474462 566.48823293876 528.16128474462 568.08823293876 527.45728474462 L 570.00823293876 539.07328474462 C 569.24023293876 539.45728474462 568.21623293876 539.84128474462 566.93623293876 540.22528474462 C 565.65623293876 540.60928474462 564.23223293876 540.94528474462 562.66423293876 541.23328474462 C 561.09623293876 541.52128474462 559.41623293876 541.76128474462 557.62423293876 541.95328474462 C 555.83223293876 542.14528474462 554.04023293876 542.24128474462 552.24823293876 542.24128474462 C 547.70423293876 542.24128474462 543.75223293876 541.56928474462 540.39223293876 540.22528474462 C 537.03223293876 538.88128474462 534.24823293876 537.04128474462 532.04023293876 534.70528474462 C 529.83223293876 532.36928474462 528.20023293876 529.60128474462 527.14423293876 526.40128474462 C 526.08823293876 523.20128474462 525.56023293876 519.74528474462 525.56023293876 516.03328474462 Z M 559.16023293876 510.56128474462 C 559.09623293876 509.34528474462 558.88823293876 508.16128474462 558.53623293876 507.00928474462 C 558.18423293876 505.85728474462 557.64023293876 504.83328474462 556.90423293876 503.93728474462 C 556.16823293876 503.04128474462 555.24023293876 502.30528474462 554.12023293876 501.72928474462 C 553.00023293876 501.15328474462 551.60823293876 500.86528474462 549.94423293876 500.86528474462 C 548.34423293876 500.86528474462 546.96823293876 501.13728474462 545.81623293876 501.68128474462 C 544.66423293876 502.22528474462 543.70423293876 502.94528474462 542.93623293876 503.84128474462 C 542.16823293876 504.73728474462 541.57623293876 505.77728474462 541.16023293876 506.96128474462 C 540.74423293876 508.14528474462 540.44023293876 509.34528474462 540.24823293876 510.56128474462 L 559.16023293876 510.56128474462 Z M 614.45623293876 503.07328474462 C 613.17623293876 502.75328474462 611.67223293876 502.41728474462 609.94423293876 502.06528474462 C 608.21623293876 501.71328474462 606.36023293876 501.53728474462 604.37623293876 501.53728474462 C 603.48023293876 501.53728474462 602.40823293876 501.61728474462 601.16023293876 501.77728474462 C 599.91223293876 501.93728474462 598.96823293876 502.11328474462 598.32823293876 502.30528474462 L 598.32823293876 540.89728474462 L 584.02423293876 540.89728474462 L 584.02423293876 493.08928474462 C 586.58423293876 492.19328474462 589.60823293876 491.34528474462 593.09623293876 490.54528474462 C 596.58423293876 489.74528474462 600.47223293876 489.34528474462 604.76023293876 489.34528474462 C 605.52823293876 489.34528474462 606.45623293876 489.39328474462 607.54423293876 489.48928474462 C 608.63223293876 489.58528474462 609.72023293876 489.71328474462 610.80823293876 489.87328474462 C 611.89623293876 490.03328474462 612.98423293876 490.22528474462 614.07223293876 490.44928474462 C 615.16023293876 490.67328474462 616.08823293876 490.94528474462 616.85623293876 491.26528474462 L 614.45623293876 503.07328474462 Z M 621.17623293876 516.03328474462 C 621.17623293876 511.55328474462 621.86423293876 507.63328474462 623.24023293876 504.27328474462 C 624.61623293876 500.91328474462 626.42423293876 498.11328474462 628.66423293876 495.87328474462 C 630.90423293876 493.63328474462 633.48023293876 491.93728474462 636.39223293876 490.78528474462 C 639.30423293876 489.63328474462 642.29623293876 489.05728474462 645.36823293876 489.05728474462 C 652.53623293876 489.05728474462 658.20023293876 491.24928474462 662.36023293876 495.63328474462 C 666.52023293876 500.01728474462 668.60023293876 506.46528474462 668.60023293876 514.97728474462 C 668.60023293876 515.80928474462 668.56823293876 516.72128474462 668.50423293876 517.71328474462 C 668.44023293876 518.70528474462 668.37623293876 519.58528474462 668.31223293876 520.35328474462 L 635.86423293876 520.35328474462 C 636.18423293876 523.29728474462 637.56023293876 525.63328474462 639.99223293876 527.36128474462 C 642.42423293876 529.08928474462 645.68823293876 529.95328474462 649.78423293876 529.95328474462 C 652.40823293876 529.95328474462 654.98423293876 529.71328474462 657.51223293876 529.23328474462 C 660.04023293876 528.75328474462 662.10423293876 528.16128474462 663.70423293876 527.45728474462 L 665.62423293876 539.07328474462 C 664.85623293876 539.45728474462 663.83223293876 539.84128474462 662.55223293876 540.22528474462 C 661.27223293876 540.60928474462 659.84823293876 540.94528474462 658.28023293876 541.23328474462 C 656.71223293876 541.52128474462 655.03223293876 541.76128474462 653.24023293876 541.95328474462 C 651.44823293876 542.14528474462 649.65623293876 542.24128474462 647.86423293876 542.24128474462 C 643.32023293876 542.24128474462 639.36823293876 541.56928474462 636.00823293876 540.22528474462 C 632.64823293876 538.88128474462 629.86423293876 537.04128474462 627.65623293876 534.70528474462 C 625.44823293876 532.36928474462 623.81623293876 529.60128474462 622.76023293876 526.40128474462 C 621.70423293876 523.20128474462 621.17623293876 519.74528474462 621.17623293876 516.03328474462 Z M 654.77623293876 510.56128474462 C 654.71223293876 509.34528474462 654.50423293876 508.16128474462 654.15223293876 507.00928474462 C 653.80023293876 505.85728474462 653.25623293876 504.83328474462 652.52023293876 503.93728474462 C 651.78423293876 503.04128474462 650.85623293876 502.30528474462 649.73623293876 501.72928474462 C 648.61623293876 501.15328474462 647.22423293876 500.86528474462 645.56023293876 500.86528474462 C 643.96023293876 500.86528474462 642.58423293876 501.13728474462 641.43223293876 501.68128474462 C 640.28023293876 502.22528474462 639.32023293876 502.94528474462 638.55223293876 503.84128474462 C 637.78423293876 504.73728474462 637.19223293876 505.77728474462 636.77623293876 506.96128474462 C 636.36023293876 508.14528474462 636.05623293876 509.34528474462 635.86423293876 510.56128474462 L 654.77623293876 510.56128474462 Z" transform="matrix(0.8625525811183026 0 0 0.8625525811183026 273.2971433423762 57.916542544814135)" fill="#d01e26" id="text"/></svg>